<svg xmlns="http://www.w3.org/2000/svg" width="860" height="164" viewBox="0 0 860 164" role="img" aria-label="musab@github - whoami">
  <title>musab@github - whoami</title>
  <defs><clipPath id="t30"><rect x="24" y="47" width="0" height="21"><animate attributeName="width" from="0" to="183" dur="0.81s" begin="0.3s" fill="freeze"/></rect></clipPath><clipPath id="t100"><rect x="24" y="73" width="0" height="25"><animate attributeName="width" from="0" to="473" dur="1.61s" begin="1.0s" fill="freeze"/></rect></clipPath><clipPath id="t240"><rect x="24" y="109" width="0" height="21"><animate attributeName="width" from="0" to="222" dur="0.98s" begin="2.4s" fill="freeze"/></rect></clipPath><clipPath id="t320"><rect x="24" y="131" width="0" height="21"><animate attributeName="width" from="0" to="433" dur="1.93s" begin="3.2s" fill="freeze"/></rect></clipPath></defs>
  <style>
    text { font-family: ui-monospace, SFMono-Regular, 'SF Mono', Menlo, Consolas, 'Liberation Mono', monospace; }
    
    @media (prefers-reduced-motion: reduce) { * { animation: none !important; } }
  </style>
  <rect x="0.5" y="0.5" width="859" height="163" rx="10" fill="#0d1117" stroke="#30363d"/>
  <path d="M0.5 36 V10.5 a10 10 0 0 1 10 -10 H849.5 a10 10 0 0 1 10 10 V36 Z" fill="#010409"/>
  <line x1="0.5" y1="36" x2="859.5" y2="36" stroke="#30363d"/>
  <circle cx="20" cy="18" r="5.5" fill="#ff5f56"/>
  <circle cx="38" cy="18" r="5.5" fill="#ffbd2e"/>
  <circle cx="56" cy="18" r="5.5" fill="#27c93f"/>
  <text x="430.0" y="22" font-size="12" fill="#8b949e" text-anchor="middle">musab@github - whoami</text>
<text x="24" y="62" font-size="13" xml:space="preserve" clip-path="url(#t30)"><tspan fill="#39d353">musab@github</tspan><tspan fill="#8b949e"> ~ $ </tspan><tspan fill="#c9d1d9">whoami</tspan></text>
<text x="24" y="92" font-size="17" font-weight="700" xml:space="preserve" clip-path="url(#t100)"><tspan fill="#58a6ff">Musab AbuKaraki</tspan><tspan fill="#c9d1d9">  /  Data Science &amp; AI graduate</tspan></text>
<text x="24" y="124" font-size="13" xml:space="preserve" clip-path="url(#t240)"><tspan fill="#39d353">musab@github</tspan><tspan fill="#8b949e"> ~ $ </tspan><tspan fill="#c9d1d9">echo $FOCUS</tspan></text>
<text x="24" y="146" font-size="13" xml:space="preserve" clip-path="url(#t320)"><tspan fill="#e3b341">Official public data -&gt; reconciled models -&gt; decisions.</tspan></text>
<rect x="459" y="134" width="8" height="15" fill="#39d353" opacity="0"><animate attributeName="opacity" values="0;1;1;0;0" keyTimes="0;0.01;0.5;0.51;1" dur="1.1s" begin="5.12s" repeatCount="indefinite"/></rect>
</svg>
