<svg xmlns="http://www.w3.org/2000/svg" width="490" height="456" viewBox="0 0 490 456" role="img" aria-label="neofetch">
  <title>neofetch</title>
  <defs></defs>
  <style>
    text { font-family: ui-monospace, SFMono-Regular, 'SF Mono', Menlo, Consolas, 'Liberation Mono', monospace; }
    .ln { animation: slide .5s ease-out both; }@keyframes slide { from { opacity: 0; transform: translateX(-10px); } to { opacity: 1; transform: none; } }.cur { animation: blink 1.1s steps(1) infinite; } @keyframes blink { 50% { opacity: 0; } }
    @media (prefers-reduced-motion: reduce) { * { animation: none !important; } }
  </style>
  <rect x="0.5" y="0.5" width="489" height="455" rx="10" fill="#0d1117" stroke="#30363d"/>
  <path d="M0.5 36 V10.5 a10 10 0 0 1 10 -10 H479.5 a10 10 0 0 1 10 10 V36 Z" fill="#010409"/>
  <line x1="0.5" y1="36" x2="489.5" y2="36" stroke="#30363d"/>
  <circle cx="20" cy="18" r="5.5" fill="#ff5f56"/>
  <circle cx="38" cy="18" r="5.5" fill="#ffbd2e"/>
  <circle cx="56" cy="18" r="5.5" fill="#27c93f"/>
  <text x="245.0" y="22" font-size="12" fill="#8b949e" text-anchor="middle">neofetch</text>
<text x="28" y="70" font-size="14" font-weight="700" fill="#39d353">musab@github</text>
<text x="28" y="88" font-size="11" fill="#484f58">----------------------------------</text>
<text x="28" y="107.5" font-size="12" fill="#c9d1d9" class="ln" style="animation-delay:0.25s" xml:space="preserve"><tspan fill="#58a6ff" font-weight="700">Role    </tspan>Data Science &amp; AI graduate</text>
<text x="28" y="127.0" font-size="12" fill="#c9d1d9" class="ln" style="animation-delay:0.36s" xml:space="preserve"><tspan fill="#58a6ff" font-weight="700">Focus   </tspan>BI, analytics engineering, automation</text>
<text x="28" y="146.5" font-size="12" fill="#c9d1d9" class="ln" style="animation-delay:0.47s" xml:space="preserve"><tspan fill="#58a6ff" font-weight="700">Stack   </tspan>Power BI / PBIP, DAX, Python, SQL</text>
<text x="28" y="166.0" font-size="12" fill="#c9d1d9" class="ln" style="animation-delay:0.58s" xml:space="preserve"><tspan fill="#58a6ff" font-weight="700">Also    </tspan>TypeScript, Next.js, Supabase</text>
<text x="28" y="185.5" font-size="12" fill="#c9d1d9" class="ln" style="animation-delay:0.69s" xml:space="preserve"><tspan fill="#58a6ff" font-weight="700">Method  </tspan>source-traced, reconciled, reproducible</text>
<text x="28" y="215.7" font-size="12" fill="#e3b341" class="ln" style="animation-delay:0.80s">[ highlights ]</text>
<text x="28" y="235.2" font-size="12" fill="#c9d1d9" class="ln" style="animation-delay:0.91s"><tspan fill="#f778ba">&gt;</tspan> 6.64M contract actions -&gt; 187 MB Power BI model</text>
<text x="28" y="254.7" font-size="12" fill="#c9d1d9" class="ln" style="animation-delay:1.02s"><tspan fill="#f778ba">&gt;</tspan> 3,107 hospitals drawn as SVG inside DAX</text>
<text x="28" y="274.2" font-size="12" fill="#c9d1d9" class="ln" style="animation-delay:1.13s"><tspan fill="#f778ba">&gt;</tspan> 10 quarters of Jordanian unemployment, traced</text>
<text x="28" y="293.7" font-size="12" fill="#c9d1d9" class="ln" style="animation-delay:1.24s"><tspan fill="#f778ba">&gt;</tspan> 96.78% mAP@0.5 aerial car detection (YOLOv8)</text>
<text x="28" y="313.2" font-size="12" fill="#c9d1d9" class="ln" style="animation-delay:1.35s"><tspan fill="#f778ba">&gt;</tspan> Orbit: realtime PM app, live on Vercel</text>
<text x="28" y="343.5" font-size="12" fill="#e3b341" class="ln" style="animation-delay:1.46s">[ contact ]</text>
<text x="28" y="363.0" font-size="12" fill="#c9d1d9" class="ln" style="animation-delay:1.57s" xml:space="preserve"><tspan fill="#58a6ff" font-weight="700">Mail    </tspan>musababukaraki1@gmail.com</text>
<text x="28" y="382.5" font-size="12" fill="#c9d1d9" class="ln" style="animation-delay:1.68s" xml:space="preserve"><tspan fill="#58a6ff" font-weight="700">Web     </tspan>linkedin.com/in/musababukaraki</text>
<rect x="28" y="418" width="22" height="14" rx="3" fill="#ff7b72"/><rect x="54" y="418" width="22" height="14" rx="3" fill="#e3b341"/><rect x="80" y="418" width="22" height="14" rx="3" fill="#39d353"/><rect x="106" y="418" width="22" height="14" rx="3" fill="#58a6ff"/><rect x="132" y="418" width="22" height="14" rx="3" fill="#bc8cff"/><rect x="158" y="418" width="22" height="14" rx="3" fill="#f778ba"/><rect x="184" y="418" width="22" height="14" rx="3" fill="#8b949e"/><rect x="210" y="418" width="22" height="14" rx="3" fill="#c9d1d9"/>
<text x="28" y="404" font-size="11" fill="#8b949e">musab@github ~ $</text>
<rect class="cur" x="140" y="394" width="7" height="13" fill="#39d353"/>
</svg>
